<?xml version="1.0" standalone="no"?>
<!DOCTYPE svg PUBLIC "-//W3C//DTD SVG 20010904//EN"
 "http://www.w3.org/TR/2001/REC-SVG-20010904/DTD/svg10.dtd">
<svg version="1.0" xmlns="http://www.w3.org/2000/svg"
 width="512.000000pt" height="512.000000pt" viewBox="0 0 512.000000 512.000000"
 preserveAspectRatio="xMidYMid meet">

<g transform="translate(0.000000,512.000000) scale(0.100000,-0.100000)"
fill="#fff" stroke="none">
<path d="M650 5109 c-331 -43 -598 -315 -640 -653 -14 -110 -14 -3682 0 -3792
21 -170 94 -319 214 -439 120 -120 271 -194 437 -215 113 -14 3683 -14 3795 0
344 43 611 310 654 654 14 110 14 3682 0 3792 -43 344 -310 611 -654 654 -99
12 -3710 12 -3806 -1z m938 -1224 c25 -11 183 -162 504 -483 l468 -467 472
471 c500 499 507 504 581 489 46 -10 263 -225 278 -276 24 -77 24 -77 -484
-586 l-472 -473 472 -472 c508 -510 508 -510 484 -587 -15 -51 -232 -266 -278
-276 -74 -15 -81 -10 -581 488 l-472 472 -473 -472 c-499 -498 -506 -503 -580
-488 -43 10 -262 224 -278 273 -26 79 -28 76 484 590 l472 472 -472 473 c-498
499 -503 506 -488 580 5 23 40 65 119 146 139 142 168 157 244 126z"/>
</g>
</svg>
