<svg width="164" height="80" viewBox="0 0 164 80" fill="none" xmlns="http://www.w3.org/2000/svg">
<circle cx="41" cy="44.0001" r="12" fill="#0C1B20"/>
<circle cx="7.5" cy="29.5001" r="7.5" fill="#0C1B20"/>
<circle cx="59" cy="19.0001" r="6" fill="#0C1B20"/>
<circle cx="14" cy="53.0001" r="4" fill="#0C1B20"/>
<circle cx="33" cy="15.0001" r="4" fill="#0C1B20"/>
<circle cx="65" cy="71.0001" r="9" fill="#0C1B20"/>
<circle cx="92.5" cy="49.5001" r="5.5" fill="#0C1B20"/>
<line x1="8.63433" y1="30.6408" x2="38.6343" y2="44.6409" stroke="#0C1B20" stroke-width="3"/>
<line x1="44.1451" y1="45.0312" x2="66.1451" y2="71.0312" stroke="#0C1B20" stroke-width="3"/>
<line x1="92.9727" y1="50.142" x2="65.9727" y2="73.142" stroke="#0C1B20" stroke-width="3"/>
<line x1="57.2914" y1="22.7632" x2="44.2914" y2="44.7632" stroke="#0C1B20" stroke-width="3"/>
<circle cx="119.577" cy="40.2446" r="12" transform="rotate(173.758 119.577 40.2446)" fill="#0C1B20"/>
<circle cx="154.455" cy="51.0161" r="7.5" transform="rotate(173.758 154.455 51.0161)" fill="#0C1B20"/>
<circle cx="104.402" cy="67.0534" r="6" transform="rotate(173.758 104.402 67.0534)" fill="#0C1B20"/>
<circle cx="145.438" cy="28.3622" r="4" transform="rotate(173.758 145.438 28.3622)" fill="#0C1B20"/>
<circle cx="130.683" cy="68.2028" r="4" transform="rotate(173.758 130.683 68.2028)" fill="#0C1B20"/>
<circle cx="92.7834" cy="16.0141" r="9" transform="rotate(173.758 92.7834 16.0141)" fill="#0C1B20"/>
<circle cx="67.7842" cy="40.3767" r="5.5" transform="rotate(173.758 67.7842 40.3767)" fill="#0C1B20"/>
<line x1="153.203" y1="50.0055" x2="121.859" y2="39.3504" stroke="#0C1B20" stroke-width="3"/>
<line x1="116.338" y1="39.5616" x2="91.6417" y2="16.1078" stroke="#0C1B20" stroke-width="3"/>
<line x1="67.2445" y1="39.7901" x2="91.5836" y2="13.9908" stroke="#0C1B20" stroke-width="3"/>
<line x1="105.691" y1="63.1268" x2="116.222" y2="39.8438" stroke="#0C1B20" stroke-width="3"/>
</svg>
