<svg width="24" height="24" viewBox="0 0 24 24" fill="none" xmlns="http://www.w3.org/2000/svg">
<path d="M14.5 21V16C14.5 15.4477 14.0523 15 13.5 15H10.5C9.94772 15 9.5 15.4477 9.5 16V21" stroke="white" stroke-linecap="round" stroke-linejoin="round"/>
<path d="M5 11V17C5 18.8856 5 19.8284 5.58579 20.4142C6.17157 21 7.11438 21 9 21H15C16.8856 21 17.8284 21 18.4142 20.4142C19 19.8284 19 18.8856 19 17V11" stroke="white"/>
<path d="M4.62115 4.51493C4.80304 3.78737 4.89398 3.42359 5.16524 3.21179C5.43651 3 5.81148 3 6.56143 3H17.4383C18.1883 3 18.5633 3 18.8345 3.21179C19.1058 3.42359 19.1967 3.78737 19.3786 4.51493L20.5822 9.32938C20.6791 9.71675 20.7275 9.91044 20.7168 10.0678C20.6891 10.4757 20.4159 10.8257 20.0268 10.9515C19.8768 11 19.6725 11 19.264 11C18.7308 11 18.4643 11 18.2404 10.9478C17.6132 10.8017 17.0947 10.3625 16.8474 9.76781C16.7592 9.55555 16.7163 9.29856 16.6307 8.78457C16.6067 8.64076 16.5947 8.56886 16.5811 8.54994C16.5412 8.49439 16.4586 8.49439 16.4187 8.54994C16.4051 8.56886 16.3931 8.64076 16.3691 8.78457L16.2876 9.27381C16.279 9.32568 16.2746 9.35161 16.2703 9.37433C16.0938 10.3005 15.2945 10.9777 14.3519 10.9995C14.3288 11 14.3025 11 14.2499 11C14.1973 11 14.171 11 14.1479 10.9995C13.2053 10.9777 12.406 10.3005 12.2295 9.37433C12.2252 9.35161 12.2208 9.32568 12.2122 9.27381L12.1307 8.78457C12.1067 8.64076 12.0947 8.56886 12.0811 8.54994C12.0412 8.49439 11.9586 8.49439 11.9187 8.54994C11.9051 8.56886 11.8931 8.64076 11.8691 8.78457L11.7876 9.27381C11.779 9.32568 11.7746 9.35161 11.7703 9.37433C11.5938 10.3005 10.7945 10.9777 9.85187 10.9995C9.82875 11 9.80246 11 9.74988 11C9.6973 11 9.67101 11 9.64789 10.9995C8.70529 10.9777 7.90594 10.3005 7.72948 9.37433C7.72515 9.35161 7.72083 9.32568 7.71218 9.27381L7.63064 8.78457C7.60667 8.64076 7.59469 8.56886 7.5811 8.54994C7.5412 8.49439 7.45856 8.49439 7.41866 8.54994C7.40507 8.56886 7.39309 8.64076 7.36912 8.78457C7.28345 9.29856 7.24062 9.55555 7.15237 9.76781C6.90512 10.3625 6.38663 10.8017 5.75939 10.9478C5.53551 11 5.26893 11 4.73579 11C4.32725 11 4.12297 11 3.97294 10.9515C3.58391 10.8257 3.31066 10.4757 3.28295 10.0678C3.27227 9.91044 3.32069 9.71675 3.41753 9.32938L4.62115 4.51493Z" stroke="white"/>
</svg>
