<svg width="500" height="500" viewBox="0 0 500 500" fill="none" xmlns="http://www.w3.org/2000/svg">
<path fill-rule="evenodd" clip-rule="evenodd" d="M236.5 57.5001C316.063 57.0256 376.563 90.3589 418 157.5C449.964 218.469 450.631 279.802 420 341.5C377.192 411.829 314.359 445.329 231.5 442C163.397 434.166 111.897 400.999 77.0001 342.5C39.8917 266.15 47.2251 194.484 99.0001 127.5C135.478 86.0103 181.311 62.677 236.5 57.5001ZM306.5 308.5C302.732 305.775 298.732 303.275 294.5 301C292.376 298.436 291.042 295.603 290.5 292.5C290.338 290.473 290.505 288.473 291 286.5C295.764 281.965 299.264 276.632 301.5 270.5C303.865 265.759 305.865 260.759 307.5 255.5C311.619 254.232 315.286 252.232 318.5 249.5C325.811 242.365 329.811 233.532 330.5 223C329.912 214.817 326.245 208.484 319.5 204C324.953 185.97 325.453 167.803 321 149.5C319.027 144.221 316.527 139.221 313.5 134.5C317.02 130.814 320.353 126.981 323.5 123C314.932 120.651 306.265 118.484 297.5 116.5C296.737 115.732 295.737 115.232 294.5 115C297.329 113.753 299.995 112.253 302.5 110.5C298.064 108.542 293.398 107.209 288.5 106.5C284.453 104.74 280.12 103.74 275.5 103.5C258.06 99.052 240.726 99.8853 223.5 106C218.956 107.882 214.956 110.549 211.5 114C209.637 116.364 207.971 118.864 206.5 121.5C182.927 130.93 170.927 148.43 170.5 174C170.955 183.794 172.288 193.46 174.5 203C172.748 205.76 170.581 208.26 168 210.5C161.998 226.658 165.498 240.492 178.5 252C181.375 253.302 184.375 254.135 187.5 254.5C190.194 266.555 195.528 277.222 203.5 286.5C203.867 290.967 203.367 295.3 202 299.5C197.574 302.786 193.074 305.786 188.5 308.5C163.944 323.363 139.444 338.363 115 353.5C85.4079 315.472 74.0745 272.472 81.0001 224.5C85.3687 198.446 95.2021 174.779 110.5 153.5C125.738 132.925 144.404 116.259 166.5 103.5C177.191 97.9846 188.191 93.3179 199.5 89.5001C267.199 72.687 325.366 89.0204 374 138.5C419.536 192.881 429.203 253.214 403 319.5C397.087 330.999 390.42 341.999 383 352.5C381.951 353.517 380.784 353.684 379.5 353C355.139 338.156 330.805 323.322 306.5 308.5Z" fill="white"/>
<path fill-rule="evenodd" clip-rule="evenodd" d="M166.5 103.5C144.404 116.259 125.738 132.925 110.5 153.5C110.396 150.91 111.063 148.577 112.5 146.5C112.392 145.558 112.059 144.725 111.5 144C112.833 143.667 114.167 143.333 115.5 143C114.692 142.692 114.025 142.192 113.5 141.5C114.917 138.33 116.584 135.33 118.5 132.5C123.017 130.737 126.684 128.737 129.5 126.5C130.086 126.709 130.586 127.043 131 127.5C131.097 123.235 132.597 119.568 135.5 116.5C138.43 116.096 141.263 116.096 144 116.5C145.733 114.853 147.566 113.353 149.5 112C148.886 110.87 148.886 109.537 149.5 108C151.181 106.011 152.514 103.844 153.5 101.5C157.164 101.64 160.664 100.973 164 99.5C164.833 99.6667 165.667 99.8333 166.5 100C164.073 101.554 164.073 102.721 166.5 103.5Z" fill="white"/>
<path opacity="0.935" fill-rule="evenodd" clip-rule="evenodd" d="M199.5 89.5C188.191 93.3178 177.191 97.9845 166.5 103.5C167.703 101.605 168.869 99.6045 170 97.5C170.667 98.1667 171.333 98.8333 172 99.5C174.573 98.3464 176.739 96.6798 178.5 94.5C180.62 95.8715 181.62 95.2048 181.5 92.5C182.552 92.6495 183.552 92.4828 184.5 92C183.529 90.7964 182.529 90.2964 181.5 90.5C182.242 89.7132 183.075 89.0465 184 88.5C184.739 89.5742 185.739 90.2409 187 90.5C191.175 89.1017 195.342 88.7684 199.5 89.5Z" fill="white"/>
<path fill-rule="evenodd" clip-rule="evenodd" d="M288.5 106.5C293.398 107.209 298.064 108.542 302.5 110.5C299.995 112.253 297.329 113.753 294.5 115C295.737 115.232 296.737 115.732 297.5 116.5C294.166 117.782 291.999 116.449 291 112.5C290.107 113.711 289.274 113.711 288.5 112.5C289.308 110.775 289.308 108.775 288.5 106.5Z" fill="white"/>
<path fill-rule="evenodd" clip-rule="evenodd" d="M275.5 103.5C275.281 104.675 275.614 105.675 276.5 106.5C278.768 105.456 281.101 105.289 283.5 106C281.729 106.535 281.396 107.369 282.5 108.5C284.323 107.253 286.323 106.586 288.5 106.5C289.308 108.775 289.308 110.775 288.5 112.5C289.274 113.711 290.107 113.711 291 112.5C291.999 116.449 294.166 117.782 297.5 116.5C306.265 118.484 314.932 120.651 323.5 123C320.353 126.981 317.02 130.814 313.5 134.5C316.527 139.221 319.027 144.221 321 149.5C325.453 167.803 324.953 185.97 319.5 204C326.245 208.484 329.912 214.817 330.5 223C329.811 233.532 325.811 242.365 318.5 249.5C314.486 249.334 310.486 249.501 306.5 250C303.105 254.895 301.438 260.395 301.5 266.5C298.452 266.494 297.952 267.494 300 269.5C301.107 268.288 301.607 268.621 301.5 270.5C299.264 276.632 295.764 281.965 291 286.5C290.505 288.473 290.338 290.473 290.5 292.5C290.879 297.297 290.379 301.964 289 306.5C273.326 325.5 253.493 331.666 229.5 325C219.217 321.04 211.051 314.54 205 305.5C204.828 298.987 204.328 292.653 203.5 286.5C195.528 277.222 190.194 266.555 187.5 254.5C184.375 254.135 181.375 253.302 178.5 252C165.498 240.492 161.998 226.658 168 210.5C170.581 208.26 172.748 205.76 174.5 203C172.288 193.46 170.955 183.794 170.5 174C170.927 148.43 182.927 130.93 206.5 121.5C207.971 118.864 209.637 116.364 211.5 114C214.956 110.549 218.956 107.882 223.5 106C240.726 99.8851 258.06 99.0518 275.5 103.5Z" fill="white"/>
<path opacity="0.969" fill-rule="evenodd" clip-rule="evenodd" d="M275.5 103.5C280.12 103.74 284.453 104.74 288.5 106.5C286.323 106.586 284.323 107.253 282.5 108.5C281.396 107.369 281.729 106.535 283.5 106C281.101 105.289 278.768 105.456 276.5 106.5C275.614 105.675 275.281 104.675 275.5 103.5Z" fill="white"/>
<path fill-rule="evenodd" clip-rule="evenodd" d="M239.5 168.5C266.757 167.196 284.257 179.53 292 205.5C294.433 228.811 285.266 245.644 264.5 256C261.232 257.15 257.899 257.984 254.5 258.5C254.5 261.833 254.5 265.167 254.5 268.5C255.5 268.5 256.5 268.5 257.5 268.5C257.667 279.838 257.5 291.172 257 302.5C253.657 309.248 248.49 311.081 241.5 308C239.959 306.421 238.792 304.587 238 302.5C237.229 287.777 237.729 273.11 239.5 258.5C223.511 255.356 212.011 246.356 205 231.5C196.971 207.922 203.138 189.088 223.5 175C228.744 172.315 234.077 170.148 239.5 168.5Z" fill="white"/>
<path fill-rule="evenodd" clip-rule="evenodd" d="M239.5 181.5C259.449 179.961 272.616 188.628 279 207.5C280.433 231.062 269.433 243.728 246 245.5C226.456 243.789 216.29 233.123 215.5 213.5C215.057 202.887 219.057 194.387 227.5 188C231.434 185.536 235.434 183.369 239.5 181.5Z" fill="white"/>
<path fill-rule="evenodd" clip-rule="evenodd" d="M243.5 189.5C255.505 189.688 264.339 195.022 270 205.5C272.21 212.307 271.877 218.973 269 225.5C267.32 226.603 265.82 226.27 264.5 224.5C269.438 213.145 266.771 203.978 256.5 197C252.368 195.1 248.034 194.267 243.5 194.5C243.5 192.833 243.5 191.167 243.5 189.5Z" fill="white"/>
<path fill-rule="evenodd" clip-rule="evenodd" d="M318.5 249.5C315.286 252.232 311.619 254.232 307.5 255.5C305.865 260.759 303.865 265.759 301.5 270.5C301.607 268.621 301.107 268.288 300 269.5C297.952 267.494 298.452 266.494 301.5 266.5C301.438 260.395 303.105 254.895 306.5 250C310.486 249.501 314.486 249.334 318.5 249.5Z" fill="white"/>
<path opacity="0.998" fill-rule="evenodd" clip-rule="evenodd" d="M203.5 286.5C204.328 292.653 204.828 298.987 205 305.5C211.051 314.54 219.217 321.04 229.5 325C253.493 331.666 273.326 325.5 289 306.5C290.379 301.964 290.879 297.297 290.5 292.5C291.042 295.603 292.376 298.436 294.5 301C298.732 303.275 302.732 305.775 306.5 308.5C305.25 308.577 304.417 309.244 304 310.5C292.447 345.937 280.613 381.271 268.5 416.5C264.926 402.463 261.926 388.296 259.5 374C260.478 369.546 262.145 365.379 264.5 361.5C262.401 354.021 259.068 347.188 254.5 341C248.325 337.223 242.825 338.057 238 343.5C234.239 349.789 231.905 356.456 231 363.5C233.443 366.605 234.943 370.105 235.5 374C232.769 388.218 229.769 402.384 226.5 416.5C214.379 381.636 202.545 346.636 191 311.5C190.623 310.058 189.79 309.058 188.5 308.5C193.074 305.786 197.574 302.786 202 299.5C203.367 295.3 203.867 290.967 203.5 286.5Z" fill="white"/>
</svg>
