<svg width="164" height="80" viewBox="0 0 164 80" fill="none" xmlns="http://www.w3.org/2000/svg">
<g clip-path="url(#clip0_130_477)">
<path d="M52.5 44C52.5 50.3513 47.3513 55.5 41 55.5C34.6487 55.5 29.5 50.3513 29.5 44C29.5 37.6487 34.6487 32.5 41 32.5C47.3513 32.5 52.5 37.6487 52.5 44Z" fill="white" stroke="white"/>
<path d="M14.5 29.5C14.5 33.366 11.366 36.5 7.5 36.5C3.63401 36.5 0.5 33.366 0.5 29.5C0.5 25.634 3.63401 22.5 7.5 22.5C11.366 22.5 14.5 25.634 14.5 29.5Z" fill="white" stroke="white"/>
<path d="M64.5 19C64.5 22.0376 62.0376 24.5 59 24.5C55.9624 24.5 53.5 22.0376 53.5 19C53.5 15.9624 55.9624 13.5 59 13.5C62.0376 13.5 64.5 15.9624 64.5 19Z" fill="white" stroke="white"/>
<path d="M17.5 53C17.5 54.933 15.933 56.5 14 56.5C12.067 56.5 10.5 54.933 10.5 53C10.5 51.067 12.067 49.5 14 49.5C15.933 49.5 17.5 51.067 17.5 53Z" fill="white" stroke="white"/>
<path d="M36.5 15C36.5 16.933 34.933 18.5 33 18.5C31.067 18.5 29.5 16.933 29.5 15C29.5 13.067 31.067 11.5 33 11.5C34.933 11.5 36.5 13.067 36.5 15Z" fill="white" stroke="white"/>
<path d="M73.5 71C73.5 75.6944 69.6944 79.5 65 79.5C60.3056 79.5 56.5 75.6944 56.5 71C56.5 66.3056 60.3056 62.5 65 62.5C69.6944 62.5 73.5 66.3056 73.5 71Z" fill="white" stroke="white"/>
<path d="M97.5 49.5C97.5 52.2614 95.2614 54.5 92.5 54.5C89.7386 54.5 87.5 52.2614 87.5 49.5C87.5 46.7386 89.7386 44.5 92.5 44.5C95.2614 44.5 97.5 46.7386 97.5 49.5Z" fill="white" stroke="white"/>
<path d="M8.63428 30.6409L38.6342 44.641" stroke="white" stroke-width="3"/>
<path d="M44.145 45.0312L66.145 71.0312" stroke="white" stroke-width="3"/>
<path d="M92.9727 50.1421L65.9727 73.1421" stroke="white" stroke-width="3"/>
<path d="M57.2915 22.7632L44.2915 44.7632" stroke="white" stroke-width="3"/>
<path d="M108.145 41.4949C107.455 35.1813 112.013 29.5033 118.327 28.8127C124.64 28.1221 130.318 32.6805 131.009 38.9942C131.699 45.3078 127.141 50.9858 120.827 51.6764C114.514 52.3669 108.836 47.8085 108.145 41.4949Z" fill="white" stroke="white"/>
<path d="M147.497 51.7773C147.076 47.9342 149.851 44.478 153.694 44.0577C157.537 43.6373 160.993 46.412 161.414 50.2551C161.834 54.0982 159.059 57.5543 155.216 57.9747C151.373 58.395 147.917 55.6203 147.497 51.7773Z" fill="white" stroke="white"/>
<path d="M98.9346 67.6514C98.6043 64.6319 100.784 61.9163 103.804 61.586C106.824 61.2558 109.539 63.4359 109.869 66.4554C110.2 69.475 108.02 72.1905 105 72.5208C101.98 72.8511 99.2649 70.671 98.9346 67.6514Z" fill="white" stroke="white"/>
<path d="M141.959 28.7427C141.749 26.8212 143.136 25.0931 145.057 24.8829C146.979 24.6728 148.707 26.0601 148.917 27.9816C149.127 29.9032 147.74 31.6313 145.818 31.8414C143.897 32.0516 142.169 30.6643 141.959 28.7427Z" fill="white" stroke="white"/>
<path d="M127.204 68.5833C126.994 66.6618 128.381 64.9337 130.302 64.7235C132.224 64.5133 133.952 65.9007 134.162 67.8222C134.372 69.7438 132.985 71.4718 131.064 71.682C129.142 71.8922 127.414 70.5049 127.204 68.5833Z" fill="white" stroke="white"/>
<path d="M84.3337 16.9383C83.8233 12.2717 87.1925 8.07489 91.8591 7.56448C96.5257 7.05406 100.722 10.4233 101.233 15.0899C101.743 19.7565 98.3741 23.9533 93.7075 24.4637C89.0409 24.9741 84.8441 21.6049 84.3337 16.9383Z" fill="white" stroke="white"/>
<path d="M62.8138 40.9203C62.5136 38.1753 64.4955 35.7066 67.2406 35.4063C69.9856 35.1061 72.4543 37.088 72.7546 39.8331C73.0548 42.5781 71.0729 45.0468 68.3278 45.3471C65.5828 45.6473 63.1141 43.6654 62.8138 40.9203Z" fill="white" stroke="white"/>
<path d="M153.203 50.0054L121.859 39.3503" stroke="white" stroke-width="3"/>
<path d="M116.338 39.5617L91.6416 16.1079" stroke="white" stroke-width="3"/>
<path d="M67.2444 39.79L91.5835 13.9907" stroke="white" stroke-width="3"/>
<path d="M105.691 63.1268L116.222 39.8438" stroke="white" stroke-width="3"/>
</g>
<defs>
<clipPath id="clip0_130_477">
<rect width="164" height="80" fill="white"/>
</clipPath>
</defs>
</svg>
