<svg width="50" height="62" viewBox="0 0 50 62" fill="none" xmlns="http://www.w3.org/2000/svg">
<path fill-rule="evenodd" clip-rule="evenodd" d="M0 3.1C0 2.27783 0.3292 1.48933 0.9153 0.90797C1.5013 0.32661 2.2962 0 3.125 0H31.25C32.0787 0.00018 32.8735 0.3269 33.4594 0.9083L49.0844 16.4083C49.6705 16.9895 49.9998 17.7779 50 18.6V52.7C50 55.1665 49.0123 57.532 47.2541 59.2761C45.496 61.0202 43.1114 62 40.625 62H9.375C6.8886 62 4.504 61.0202 2.7459 59.2761C0.9877 57.532 0 55.1665 0 52.7V3.1ZM42.4563 18.6L31.25 7.4834V18.6H42.4563Z" fill="white"/>
</svg>
