<svg width="75" height="81" viewBox="0 0 75 81" fill="none" xmlns="http://www.w3.org/2000/svg">
<path fill-rule="evenodd" clip-rule="evenodd" d="M13 8.1C13 7.27783 13.3292 6.48933 13.9153 5.90797C14.5013 5.32661 15.2962 5 16.125 5H44.25C45.0787 5.00018 45.8735 5.3269 46.4594 5.9083L62.0844 21.4083C62.6705 21.9895 62.9998 22.7779 63 23.6V57.7C63 60.1665 62.0123 62.532 60.2541 64.2761C58.496 66.0202 56.1114 67 53.625 67H22.375C19.8886 67 17.504 66.0202 15.7459 64.2761C13.9877 62.532 13 60.1665 13 57.7V8.1ZM55.4563 23.6L44.25 12.4834V23.6H55.4563Z" fill="#0C1B20"/>
</svg>
