<svg width="80" height="80" viewBox="0 0 80 80" fill="none" xmlns="http://www.w3.org/2000/svg">
<g clip-path="url(#clip0_130_506)">
<mask id="mask0_130_506" style="mask-type:luminance" maskUnits="userSpaceOnUse" x="0" y="0" width="80" height="80">
<path d="M80 0H0V80H80V0Z" fill="white"/>
</mask>
<g mask="url(#mask0_130_506)">
<path d="M42.7778 33.2812V2.30195C42.7778 1.05391 43.75 0 45 0C62.1806 0 76.1111 13.9088 76.1111 31.0625C76.1111 32.3105 75.0556 33.2812 73.8056 33.2812H42.7778ZM5 37.7188C5 20.8979 17.5139 6.9752 33.75 4.75645C35.0278 4.57617 36.1111 5.60234 36.1111 6.89199V39.9375L57.8472 61.6396C58.7778 62.5687 58.7083 64.0941 57.6389 64.843C52.1944 68.7258 45.5278 71 38.3333 71C19.9306 71 5 56.1066 5 37.7188ZM78.1111 39.9375C79.4028 39.9375 80.4167 41.0191 80.25 42.2949C79.1805 50.0467 75.4444 56.9387 69.9861 62.0279C69.1528 62.8045 67.8472 62.749 67.0417 61.9309L45 39.9375H78.1111Z" fill="white"/>
</g>
</g>
<defs>
<clipPath id="clip0_130_506">
<rect width="80" height="80" fill="white"/>
</clipPath>
</defs>
</svg>
